<svg width="250" height="250" viewBox="0 0 250 250" fill="none" xmlns="http://www.w3.org/2000/svg">
<path d="M69 107.5V165C69 168.59 71.9101 171.5 75.5 171.5H177.5C181.09 171.5 184 168.59 184 165V107.5C184 103.91 181.09 101 177.5 101H176V92.5C176 88.9101 173.09 86 169.5 86H152.5C148.91 86 146 88.9101 146 92.5V101H75.5C71.9101 101 69 103.91 69 107.5ZM171 92.5V101H151V92.5C151 91.6716 151.672 91 152.5 91H169.5C170.328 91 171 91.6716 171 92.5ZM74 165V107.5C74 106.672 74.6716 106 75.5 106H148.5H173.5H177.5C178.328 106 179 106.672 179 107.5V165C179 165.828 178.328 166.5 177.5 166.5H75.5C74.6716 166.5 74 165.828 74 165ZM125 152C121.802 152 117.992 150.809 115.021 148.378C112.115 146 110 142.44 110 137.5C110 132.421 111.849 128.881 114.511 126.578C117.225 124.229 120.984 123 125 123C129.13 123 133.017 124.038 135.818 126.268C138.527 128.425 140.5 131.917 140.5 137.5C140.5 142.944 138.26 146.464 135.307 148.692C132.257 150.993 128.314 152 125 152ZM105 137.5C105 144.06 107.885 149 111.854 152.247C115.758 155.441 120.698 157 125 157C129.186 157 134.243 155.757 138.318 152.683C142.49 149.536 145.5 144.556 145.5 137.5C145.5 130.583 142.973 125.575 138.932 122.357C134.983 119.212 129.87 118 125 118C120.016 118 115.025 119.521 111.239 122.797C107.401 126.119 105 131.079 105 137.5ZM247.5 125C247.5 192.655 192.655 247.5 125 247.5C57.3451 247.5 2.5 192.655 2.5 125C2.5 57.3451 57.3451 2.5 125 2.5C192.655 2.5 247.5 57.3451 247.5 125Z" fill="#668AA5" stroke="#3A729B" stroke-width="5"/>
</svg>
