<svg width="60" height="60" viewBox="0 0 60 60" fill="none" xmlns="http://www.w3.org/2000/svg">
<g clip-path="url(#clip0_290_4637)">
<path d="M37 14L21.7071 29.2929C21.3166 29.6834 21.3166 30.3166 21.7071 30.7071L30.2929 39.2929C30.6834 39.6834 31.3166 39.6834 31.7071 39.2929L47 24M37 14L38.8787 12.1213C40.0503 10.9497 41.9497 10.9497 43.1213 12.1213L48.8787 17.8787C50.0503 19.0503 50.0503 20.9497 48.8787 22.1213L47 24M37 14L47 24" stroke="#668AA5" stroke-width="2" stroke-linecap="round"/>
<path d="M19 46L26.465 43.5117C27.1702 43.2766 27.3815 42.3815 26.8559 41.8559L19.1441 34.1441C18.6185 33.6185 17.7234 33.8298 17.4883 34.535L15 42M19 46L14.8974 47.3675C14.1156 47.6281 13.3719 46.8844 13.6325 46.1026L15 42M19 46L15 42" stroke="#668AA5" stroke-width="2" stroke-linecap="round"/>
</g>
<defs>
<clipPath id="clip0_290_4637">
<rect width="60" height="60" fill="white"/>
</clipPath>
</defs>
</svg>
