<svg width="258" height="175" viewBox="0 0 258 175" fill="none" xmlns="http://www.w3.org/2000/svg">
<path d="M27.6007 57.8097H29.0632V96.2194L1.22761 61.9473V95.6668H-0.234863V57.2527L27.6007 91.4762V57.8097Z" fill="white"/>
<path d="M47.2227 96.2725H46.7808C45.2151 96.2801 43.6648 95.9631 42.2276 95.3415C40.7903 94.7199 39.4974 93.8072 38.4302 92.6609C37.3005 91.5743 36.4029 90.2697 35.7916 88.8261C35.1803 87.3825 34.8679 85.8298 34.8734 84.262C34.8612 82.7095 35.1687 81.1712 35.7768 79.7429C36.385 78.3146 37.2807 77.027 38.4081 75.9603C39.5479 74.8127 40.9095 73.9096 42.4099 73.3061C43.9102 72.7027 45.5177 72.4115 47.1343 72.4504C50.5983 72.4504 53.5763 73.8296 56.0682 76.588L40.224 92.2366C42.4126 93.9871 44.5142 94.8624 46.529 94.8624C48.429 94.8923 50.3023 94.4131 51.9547 93.4743C53.5486 92.5618 54.9097 91.2923 55.9312 89.7655V92.3382C54.8549 93.5905 53.5175 94.5917 52.013 95.2714C50.5084 95.9511 48.8734 96.2928 47.2227 96.2725ZM46.6925 73.8605C44.0179 73.8605 41.6467 74.892 39.5789 76.9549C38.6038 77.8717 37.8265 78.9784 37.2946 80.2069C36.7627 81.4353 36.4876 82.7597 36.4861 84.0984C36.4526 86.7091 37.4076 89.2359 39.1592 91.1712L53.8414 76.5836C51.8823 74.8139 49.3318 73.8425 46.6925 73.8605V73.8605Z" fill="white"/>
<path d="M63.067 92.6123C61.9572 91.5145 61.0777 90.2062 60.4798 88.764C59.882 87.3218 59.5779 85.7746 59.5853 84.2133C59.5727 82.6602 59.8801 81.1211 60.4882 79.692C61.0964 78.263 61.9922 76.9746 63.12 75.9072C65.3754 73.6616 68.4279 72.4009 71.6099 72.4009C74.7918 72.4009 77.8443 73.6616 80.0997 75.9072C81.2214 76.9822 82.1111 78.2759 82.7137 79.7083C83.3163 81.1407 83.6191 82.6814 83.6035 84.2354C83.6152 85.7926 83.3182 87.3367 82.7297 88.7784C82.1412 90.22 81.2728 91.5306 80.1748 92.6344C79.1168 93.783 77.8286 94.6955 76.3943 95.3125C74.96 95.9294 73.4118 96.237 71.8507 96.215H71.4088C69.8436 96.233 68.2922 95.9216 66.855 95.301C65.4179 94.6803 64.1273 93.7643 63.067 92.6123V92.6123ZM81.9863 84.3327C82 82.958 81.7368 81.5946 81.2122 80.324C80.6877 79.0534 79.9126 77.9015 78.9333 76.9372C78.0021 75.9374 76.8729 75.1428 75.6177 74.6039C74.3625 74.0651 73.0088 73.7938 71.643 73.8075C70.2682 73.798 68.9063 74.0736 67.6432 74.6168C66.3802 75.16 65.2432 75.9591 64.3041 76.9637C63.3158 77.9233 62.5321 79.0734 62.0005 80.3445C61.469 81.6156 61.2005 82.9813 61.2113 84.3592C61.2525 87.1225 62.3698 89.7606 64.3255 91.7122C66.2811 93.6639 68.9208 94.775 71.6828 94.8093C73.046 94.8277 74.3982 94.5621 75.6533 94.0294C76.9084 93.4967 78.0389 92.7085 78.973 91.7149C79.9466 90.7511 80.7154 89.6003 81.2333 88.3317C81.7511 87.0631 82.0072 85.7028 81.9863 84.3327V84.3327Z" fill="white"/>
<path d="M127.95 57.8097V95.6669H126.285V59.7768L108.421 96.3741L90.6639 59.7768V95.6669H89.1484V57.8097H91.5697L108.576 92.7317L125.626 57.8097H127.95Z" fill="white"/>
<path d="M153.011 72.9499H154.624V95.6668H153.011V91.0739C151.294 94.5043 148.368 96.2194 144.232 96.2194C142.908 96.2507 141.593 96.0068 140.368 95.503C139.144 94.9993 138.037 94.2468 137.118 93.293C136.183 92.3625 135.447 91.2522 134.952 90.029C134.458 88.8059 134.216 87.4952 134.242 86.176V72.9499H135.855V86.176C135.844 87.2971 136.054 88.4092 136.474 89.4486C136.894 90.4879 137.516 91.4339 138.303 92.2321C139.053 93.0566 139.969 93.7126 140.991 94.1568C142.013 94.6011 143.118 94.8234 144.232 94.8093C145.374 94.8111 146.504 94.584 147.557 94.1414C148.609 93.6987 149.563 93.0495 150.36 92.2321C151.2 91.4632 151.869 90.5273 152.325 89.4844C152.782 88.4415 153.016 87.3146 153.011 86.176V72.9499Z" fill="white"/>
<path d="M165.131 73.7588C164.279 73.7511 163.453 74.0562 162.811 74.6164C162.492 74.8701 162.236 75.1929 162.06 75.5606C161.885 75.9282 161.796 76.3309 161.799 76.7383C161.813 77.1835 161.922 77.6205 162.118 78.0206C162.314 78.4207 162.592 78.7746 162.935 79.059C163.761 79.8143 164.677 80.4659 165.661 80.9996C166.721 81.592 167.786 82.2241 168.864 82.896C169.94 83.5689 170.873 84.4459 171.612 85.4776C172.37 86.5175 172.769 87.7759 172.748 89.0626C172.759 90.0194 172.565 90.9675 172.178 91.8424C171.79 92.7173 171.219 93.4985 170.503 94.1329C169.041 95.5162 167.094 96.2688 165.082 96.2283C163.776 96.2392 162.486 95.936 161.322 95.3442C160.246 94.8421 159.349 94.0211 158.755 92.9924V90.5656C160.036 93.3947 162.088 94.8093 164.91 94.8093C166.535 94.8551 168.116 94.2761 169.328 93.1914C170.506 92.1157 171.095 90.9133 171.095 89.5842C171.132 88.3643 170.729 87.1718 169.96 86.2247C169.182 85.3008 168.253 84.516 167.212 83.9039L164.057 82.0119C163.026 81.4146 162.104 80.6463 161.331 79.7398C160.583 78.8702 160.179 77.757 160.195 76.6101C160.192 76.0293 160.319 75.4553 160.569 74.9309C160.818 74.4065 161.183 73.9454 161.636 73.582C162.677 72.7268 163.997 72.2861 165.343 72.3443C166.079 72.3394 166.809 72.495 167.479 72.8003C168.15 73.1057 168.746 73.5534 169.226 74.1125V76.1945C168.137 74.5737 166.771 73.7618 165.131 73.7588Z" fill="white"/>
<path d="M179.004 67.4508C178.027 67.4508 177.539 66.9955 177.542 66.0849C177.545 65.1742 178.032 64.7204 179.004 64.7233C179.979 64.7233 180.467 65.1772 180.467 66.0849C180.467 66.9925 179.979 67.4479 179.004 67.4508ZM179.813 73.0029V95.6669H178.196V73.0029H179.813Z" fill="white"/>
<path d="M197.521 96.3211H197.08C195.519 96.3373 193.972 96.0267 192.539 95.4093C191.105 94.7919 189.816 93.8813 188.755 92.7361C187.643 91.6404 186.761 90.3325 186.163 88.8898C185.565 87.4471 185.263 85.8989 185.274 84.3371C185.261 82.7806 185.568 81.2381 186.176 79.8054C186.784 78.3727 187.68 77.0804 188.809 76.0089C189.941 74.8645 191.296 73.963 192.788 73.3596C194.281 72.7561 195.881 72.4633 197.491 72.499C199.146 72.4825 200.786 72.8211 202.3 73.4921C203.813 74.1632 205.166 75.151 206.265 76.389V78.9618C205.247 77.4382 203.885 76.1754 202.289 75.2751C200.692 74.3713 198.887 73.9019 197.053 73.9138C195.219 73.9257 193.419 74.4184 191.835 75.3429C190.25 76.2674 188.936 77.5913 188.022 79.1826C187.108 80.7739 186.627 82.577 186.627 84.4123C186.627 86.2475 187.108 88.0506 188.022 89.6419C188.936 91.2332 190.25 92.5571 191.835 93.4816C193.419 94.4061 195.219 94.8988 197.053 94.9107C198.887 94.9226 200.692 94.4533 202.289 93.5494C203.896 92.6426 205.26 91.3612 206.265 89.8141V92.4399C205.179 93.6862 203.834 94.6795 202.323 95.35C200.813 96.0205 199.174 96.3519 197.521 96.3211Z" fill="white"/>
<path d="M43.4714 63.574V83.7094C43.4764 83.9214 43.4051 84.1282 43.2704 84.292C43.1357 84.4558 42.9466 84.5657 42.7376 84.6016C42.5287 84.6375 42.3138 84.5971 42.1322 84.4876C41.9506 84.3782 41.8143 84.2071 41.7483 84.0056L33.0353 59.3966C32.9546 59.166 32.946 58.9163 33.0107 58.6807C33.0754 58.4451 33.2103 58.2349 33.3974 58.0779C33.5845 57.9209 33.815 57.8247 34.0582 57.8021C34.3013 57.7794 34.5456 57.8314 34.7585 57.9511L42.8617 62.5263C43.0473 62.6309 43.2016 62.7831 43.3088 62.9673C43.416 63.1515 43.4721 63.3609 43.4714 63.574V63.574Z" fill="#52A2FF"/>
<path d="M17.6862 91.5647L8.84949 96.5554C8.66669 96.6579 8.46027 96.7109 8.25071 96.7089C8.04115 96.707 7.83574 96.6502 7.65487 96.5443C7.474 96.4384 7.32395 96.2871 7.21961 96.1052C7.11527 95.9234 7.06027 95.7174 7.06006 95.5078V64.1885C7.05936 63.9604 7.13956 63.7394 7.28641 63.5649C7.43325 63.3904 7.63722 63.2737 7.86201 63.2355C8.0868 63.1973 8.31784 63.2401 8.51403 63.3563C8.71023 63.4726 8.85884 63.6547 8.93344 63.8702L18.212 90.1192C18.307 90.3836 18.3064 90.673 18.2103 90.937C18.1143 91.2011 17.9288 91.4232 17.6862 91.5647Z" fill="#6ED4FF"/>
<path d="M117.846 70.0722V74.6695C117.846 74.9872 117.72 75.2919 117.495 75.5166C117.27 75.7412 116.966 75.8674 116.648 75.8674H107.542C107.225 75.8674 106.92 75.7412 106.695 75.5166C106.471 75.2919 106.345 74.9872 106.345 74.6695V64.9444C106.345 64.7347 106.4 64.5287 106.504 64.3469C106.609 64.1651 106.759 64.0137 106.94 63.9078C107.12 63.8019 107.326 63.7452 107.535 63.7432C107.745 63.7413 107.951 63.7942 108.134 63.8967L117.223 69.0289C117.411 69.1307 117.568 69.2813 117.677 69.4649C117.787 69.6485 117.845 69.8583 117.846 70.0722Z" fill="#6ED4FF"/>
<path d="M80.2984 79.2889V83.8862C80.2979 84.0985 80.2412 84.3068 80.1341 84.4901C80.027 84.6733 79.8733 84.8249 79.6887 84.9295L70.5869 90.0705C70.4036 90.1749 70.1961 90.2289 69.9853 90.2272C69.7744 90.2256 69.5678 90.1682 69.3862 90.061C69.2046 89.9538 69.0546 89.8005 68.9512 89.6167C68.8478 89.4328 68.7948 89.225 68.7975 89.014V79.2889C68.7969 79.1312 68.8274 78.975 68.8873 78.8291C68.9473 78.6833 69.0354 78.5507 69.1466 78.439C69.2578 78.3273 69.39 78.2386 69.5356 78.1782C69.6812 78.1177 69.8372 78.0865 69.9948 78.0865H79.101C79.2587 78.0865 79.4147 78.1177 79.5603 78.1782C79.7058 78.2386 79.838 78.3273 79.9493 78.439C80.0605 78.5507 80.1486 78.6833 80.2085 78.8291C80.2685 78.975 80.299 79.1312 80.2984 79.2889V79.2889Z" fill="#BCEFFF"/>
<path d="M143.812 81.4992L140.914 83.1392C140.731 83.2417 140.525 83.2946 140.315 83.2927C140.106 83.2907 139.9 83.234 139.719 83.1281C139.538 83.0222 139.388 82.8708 139.284 82.689C139.18 82.5072 139.125 82.3012 139.125 82.0915V73.0295C139.125 72.9159 139.162 72.8055 139.231 72.7153C139.3 72.6252 139.397 72.5602 139.506 72.5305C139.616 72.5009 139.732 72.5081 139.837 72.5512C139.942 72.5942 140.03 72.6706 140.088 72.7687L144.254 79.8415C144.336 79.9788 144.39 80.1312 144.412 80.2895C144.434 80.4479 144.424 80.6091 144.383 80.7636C144.341 80.918 144.27 81.0627 144.172 81.1891C144.074 81.3154 143.952 81.4209 143.812 81.4992V81.4992Z" fill="#52A2FF"/>
<path d="M198.737 77.6666L195.326 79.5895C195.241 79.6722 195.127 79.7179 195.009 79.7166C194.891 79.7154 194.779 79.6673 194.696 79.5829C194.613 79.4985 194.568 79.3847 194.569 79.2665C194.57 79.1484 194.618 79.0356 194.703 78.9529L196.002 76.7427C196.187 76.4267 196.489 76.1964 196.843 76.1013C197.197 76.0062 197.574 76.054 197.893 76.2343L198.737 76.7073C198.822 76.7547 198.894 76.8242 198.943 76.9086C198.993 76.9929 199.019 77.089 199.019 77.187C199.019 77.2849 198.993 77.381 198.943 77.4653C198.894 77.5497 198.822 77.6192 198.737 77.6666Z" fill="#BCEFFF"/>
<path d="M169.386 75.3105L168.162 77.3793C168.056 77.5589 167.905 77.7079 167.724 77.8113C167.543 77.9148 167.338 77.9692 167.13 77.9692C166.922 77.9692 166.717 77.9148 166.536 77.8113C166.355 77.7079 166.204 77.5589 166.098 77.3793L162.02 70.4479C161.987 70.3851 161.974 70.3135 161.984 70.2432C161.994 70.1728 162.025 70.1072 162.074 70.0556C162.122 70.004 162.186 69.9688 162.256 69.9552C162.325 69.9415 162.397 69.9499 162.462 69.9794L168.922 73.6307C169.066 73.707 169.193 73.812 169.295 73.9392C169.397 74.0664 169.472 74.2132 169.516 74.3705C169.559 74.5278 169.57 74.6923 169.548 74.8539C169.525 75.0156 169.47 75.1709 169.386 75.3105V75.3105Z" fill="#6ED4FF"/>
</svg>
